<svg version="1" xmlns="http://www.w3.org/2000/svg" width="682.667" height="682.667" viewBox="0 0 512.000000 512.000000"><path d="M119.9 2.2c-7 4-7.9 7.1-7.9 27.7V48l-37.7.1c-20.8 0-38.6.2-39.5.4C20 51.3 7.1 62.8 2 77.6.1 83.1 0 88 0 279.5c0 194.1 0 196.3 2 202.8 4 12.8 15 23.7 27.9 27.8 6.2 1.9 11 1.9 226.6 1.9 218 0 220.3 0 226.1-2 13-4.5 23.5-15.1 27.4-27.7 2-6.5 2-8.8 2-202.8s0-196.3-2-202.1c-4.5-13-15.1-23.5-27.7-27.4-6-1.9-9.3-2-44.4-2H400V29.9c0-16.6-.2-18.4-2.1-21.9C392-2.5 376-2.5 370.1 8c-1.9 3.5-2.1 5.3-2.1 21.9V48h-96V30c0-15.8-.2-18.6-1.9-21.8-5.4-10.6-22-10.8-28-.2-1.9 3.5-2.1 5.3-2.1 21.9V48h-96V29.9c0-16.6-.2-18.4-2.1-21.9-4.2-7.5-14.5-10.2-22-5.8zM112 98.1c0 16.6.2 18.4 2.1 21.9 5.9 10.5 21.9 10.5 27.8 0 1.9-3.5 2.1-5.3 2.1-21.9V80h96v18.1c0 16.6.2 18.4 2.1 21.9 5.9 10.5 21.9 10.5 27.8 0 1.9-3.5 2.1-5.3 2.1-21.9V80h96v18.1c0 16.9.1 18.4 2.2 22.1 5.9 10.4 21.8 10.3 27.7-.2 1.9-3.5 2.1-5.3 2.1-21.9V79.9l36.3.3c39 .3 39 .3 41.9 5.7 2 3.7 1.9 384.6-.1 388.3-3 5.6 11.2 5.3-222.1 5.3-176 0-216.1-.2-218.1-1.3-5.8-3.1-5.4 10.6-5.7-194.7-.2-104 0-190.9.3-193.2.6-4.5 4.2-8.9 7.8-9.6 1.2-.2 17.8-.5 37-.6L112 80v18.1z"/><path d="M112 216v24h64v-48h-64v24zM224 216v24h64v-48h-64v24zM336 216v24h64v-48h-64v24zM112 296v24h64v-48h-64v24zM224 296v24h64v-48h-64v24zM336 296v24h64v-48h-64v24zM112 376v24h64v-48h-64v24zM224 376v24h64v-48h-64v24zM336 376v24h64v-48h-64v24z"/></svg>